<svg xmlns="http://www.w3.org/2000/svg" xml:space="preserve" id="Layer_1" x="0" y="0" version="1.1" viewBox="0 0 280.2 44">
  <style>
    .st0{fill:none}.st1{fill:#9fd931}.st1,.st2,.st3,.st4,.st5{opacity:.8;enable-background:new}.st2{fill:#00b8ce}.st3{fill:#8a6bbc}.st4{fill:#ff4b4c}.st5{fill:#ffa816}
  </style>
  <path d="M-28.5-103h283v44h-283z" class="st0"/>
  <path d="M-28.5-103h50.2v44h-50.2v-44z" class="st0" transform="translate(28.51 103.02)"/>
  <path d="M14.1-103h-34.8l-2 11.1h44.2l.3-1.7-7.7-9.4z" class="st1" transform="translate(28.51 103.02)"/>
  <path d="M-28.5-59.1h13.1l7.7-44h-13.1l-7.7 44z" class="st2" transform="translate(28.51 103.02)"/>
  <path d="M14.1-103h-3.9L2.4-59H8l8.8-7.5 4.8-27.3-7.5-9.2z" class="st3" transform="translate(28.51 103.02)"/>
  <path d="M-28.5-59.1H8l8.9-7.5.6-3.6h-44.1l-1.9 11.1z" class="st4" transform="translate(28.51 103.02)"/>
  <path d="m20.2-84.9.3-1.6h-44.2l-1.7 9.7h44.2l.2-1.4 1.2-6.7z" class="st5" transform="translate(28.51 103.02)"/>
  <path d="M-27.7-103h48.2v44h-48.2v-44z" class="st0" transform="translate(78.76 103.02)"/>
  <path d="m-27.7-69 8.2 9.9h17.7l-22.7-27.7-3.2 17.8z" class="st5" transform="translate(78.76 103.02)"/>
  <path d="M20.5-103H7.4L2.2-73.9-.4-59.1h3l12-10.2 3.1-17.9 2.8-15.8z" class="st3" transform="translate(78.76 103.02)"/>
  <path d="m2.6-59.1 12-10.2 3.1-17.8-32.8 28H2.6z" class="st4" transform="translate(78.76 103.02)"/>
  <path d="m-27.7-69 8.2 9.9h3.2l7.7-44h-13.1l-6 34.1z" class="st1" transform="translate(78.76 103.02)"/>
  <path d="M-30.5-103h55v44h-55v-44z" class="st0" transform="translate(126.97 103.02)"/>
  <path d="M-30.5-59.1h13.1l7.7-44h-13.1l-7.7 44z" class="st1" transform="translate(126.97 103.02)"/>
  <path d="M3.7-59.1h13.1l7.7-44H11.4l-7.7 44z" class="st4" transform="translate(126.97 103.02)"/>
  <path d="m-22.8-103-.7 3.8L4-59.1h12.8l.7-3.8L-10-103h-12.8z" class="st3" transform="translate(126.97 103.02)"/>
  <path d="M-33.3-103h48.5v44h-48.5v-44z" class="st0" transform="translate(182 103.02)"/>
  <path d="M15.2-93.6 7.5-103h-33l-2 11.1h42.4l.3-1.7z" class="st4" transform="translate(182 103.02)"/>
  <path d="m-.3-59.1 11.1-9.4 3.1-17.7L-18-59.1H-.3z" class="st5" transform="translate(182 103.02)"/>
  <path d="M-12.4-103h-13.1l-7.8 44h13.1l7.8-44z" class="st3" transform="translate(182 103.02)"/>
  <path d="M15.2-93.6 7.5-103h-17.7l22.3 27.2 3.1-17.8z" class="st1" transform="translate(182 103.02)"/>
  <path d="M-36.3-103h33.7v44h-33.7v-44z" class="st0" transform="translate(230.47 103.02)"/>
  <path d="M-34.3-59.1h13.1l7.7-44h-13.1l-7.7 44z" class="st3" transform="translate(230.47 103.02)"/>
  <path d="M-34.3-59.1h31.7l2-11.1h-31.7l-2 11.1z" class="st2" transform="translate(230.47 103.02)"/>
  <path d="M-31.3-103H16v44h-47.3v-44z" class="st0" transform="translate(264.15 103.02)"/>
  <path d="M16-103h-39.6l-2 11.1H14l2-11.1z" class="st4" transform="translate(264.15 103.02)"/>
  <path d="M10.8-70.2h-40.2l-2 11.1H8.9l1.9-11.1z" class="st3" transform="translate(264.15 103.02)"/>
  <path d="M6.4-86.5h-32.9l-1.7 9.7H4.7l1.7-9.7z" class="st5" transform="translate(264.15 103.02)"/>
  <path d="M-10.4-103h-13.1l-7.8 44h13.1l7.8-44z" class="st1" transform="translate(264.15 103.02)"/>
</svg>
